<svg xmlns="http://www.w3.org/2000/svg" xmlns:xlink="http://www.w3.org/1999/xlink" width="224" height="220" viewBox="0 0 224 220">
  <defs>
    <clipPath id="clip-texture-image">
      <rect width="224" height="220"/>
    </clipPath>
  </defs>
  <g id="texture-image" clip-path="url(#clip-texture-image)">
    <g id="Group_754" data-name="Group 754" transform="translate(-188.989 -209.986)">
      <rect id="Rectangle_373" data-name="Rectangle 373" width="20" height="20" transform="translate(392.989 269.986) rotate(-90)" fill="#2c2c2c"/>
      <rect id="Rectangle_370" data-name="Rectangle 370" width="20" height="20" transform="translate(257.989 229.986) rotate(-90)" fill="#2c2c2c"/>
      <rect id="Rectangle_371" data-name="Rectangle 371" width="20" height="20" transform="translate(232.989 229.986) rotate(-90)" fill="#2c2c2c"/>
      <rect id="Rectangle_372" data-name="Rectangle 372" width="20" height="20" transform="translate(207.989 229.986) rotate(-90)" fill="#2c2c2c"/>
      <rect id="Rectangle_373-2" data-name="Rectangle 373" width="20" height="20" transform="translate(358.989 229.986) rotate(-90)" fill="#2c2c2c"/>
      <rect id="Rectangle_374" data-name="Rectangle 374" width="20" height="20" transform="translate(333.989 229.986) rotate(-90)" fill="#2c2c2c"/>
      <rect id="Rectangle_375" data-name="Rectangle 375" width="20" height="45" transform="translate(282.989 229.986) rotate(-90)" fill="#2c2c2c"/>
      <rect id="Rectangle_370-2" data-name="Rectangle 370" width="20" height="20" transform="translate(291.989 269.986) rotate(-90)" fill="#2c2c2c"/>
      <rect id="Rectangle_371-2" data-name="Rectangle 371" width="20" height="20" transform="translate(266.989 269.986) rotate(-90)" fill="#2c2c2c"/>
      <rect id="Rectangle_372-2" data-name="Rectangle 372" width="20" height="20" transform="translate(241.989 269.986) rotate(-90)" fill="#2c2c2c"/>
      <rect id="Rectangle_374-2" data-name="Rectangle 374" width="20" height="20" transform="translate(367.989 269.986) rotate(-90)" fill="#2c2c2c"/>
      <rect id="Rectangle_375-2" data-name="Rectangle 375" width="20" height="45" transform="translate(316.989 269.986) rotate(-90)" fill="#2c2c2c"/>
      <rect id="Rectangle_392" data-name="Rectangle 392" width="20" height="45" transform="translate(188.989 309.986) rotate(-90)" fill="#2c2c2c"/>
      <rect id="Rectangle_393" data-name="Rectangle 393" width="20" height="20" transform="translate(263.989 309.986) rotate(-90)" fill="#2c2c2c"/>
      <rect id="Rectangle_394" data-name="Rectangle 394" width="20" height="20" transform="translate(238.989 309.986) rotate(-90)" fill="#2c2c2c"/>
      <rect id="Rectangle_395" data-name="Rectangle 395" width="20" height="45" transform="translate(288.989 309.986) rotate(-90)" fill="#2c2c2c"/>
      <rect id="Rectangle_376" data-name="Rectangle 376" width="20" height="45" transform="translate(252.489 349.986) rotate(-90)" fill="#2c2c2c"/>
      <rect id="Rectangle_377" data-name="Rectangle 377" width="20" height="20" transform="translate(227.489 349.986) rotate(-90)" fill="#2c2c2c"/>
      <rect id="Rectangle_378" data-name="Rectangle 378" width="20" height="20" transform="translate(327.489 349.986) rotate(-90)" fill="#2c2c2c"/>
      <rect id="Rectangle_379" data-name="Rectangle 379" width="20" height="20" transform="translate(302.489 349.986) rotate(-90)" fill="#2c2c2c"/>
      <rect id="Rectangle_380" data-name="Rectangle 380" width="20" height="20" transform="translate(352.489 349.986) rotate(-90)" fill="#2c2c2c"/>
      <rect id="Rectangle_370-3" data-name="Rectangle 370" width="20" height="20" transform="translate(261.489 389.986) rotate(-90)" fill="#2c2c2c"/>
      <rect id="Rectangle_371-3" data-name="Rectangle 371" width="20" height="20" transform="translate(236.489 389.986) rotate(-90)" fill="#2c2c2c"/>
      <rect id="Rectangle_372-3" data-name="Rectangle 372" width="20" height="20" transform="translate(211.489 389.986) rotate(-90)" fill="#2c2c2c"/>
      <rect id="Rectangle_373-3" data-name="Rectangle 373" width="20" height="20" transform="translate(362.489 389.986) rotate(-90)" fill="#2c2c2c"/>
      <rect id="Rectangle_374-3" data-name="Rectangle 374" width="20" height="20" transform="translate(337.489 389.986) rotate(-90)" fill="#2c2c2c"/>
      <rect id="Rectangle_375-3" data-name="Rectangle 375" width="20" height="45" transform="translate(286.489 389.986) rotate(-90)" fill="#2c2c2c"/>
      <rect id="Rectangle_392-2" data-name="Rectangle 392" width="20" height="45" transform="translate(251.489 429.986) rotate(-90)" fill="#2c2c2c"/>
      <rect id="Rectangle_393-2" data-name="Rectangle 393" width="20" height="20" transform="translate(326.489 429.986) rotate(-90)" fill="#2c2c2c"/>
      <rect id="Rectangle_394-2" data-name="Rectangle 394" width="20" height="20" transform="translate(301.489 429.986) rotate(-90)" fill="#2c2c2c"/>
      <rect id="Rectangle_395-2" data-name="Rectangle 395" width="20" height="45" transform="translate(351.489 429.986) rotate(-90)" fill="#2c2c2c"/>
    </g>
  </g>
</svg>
